<?xml version="1.0" encoding="UTF-8"?>
<svg id="_Слой_1" data-name="Слой 1" xmlns="http://www.w3.org/2000/svg" viewBox="0 0 217 217">
  <defs>
    <style>
      .cls-1 {
        fill: #fff;
      }

      .cls-2 {
        fill: none;
      }

      .cls-3 {
        fill: #ff9448;
      }
    </style>
  </defs>
  <path class="cls-3" d="m217,108.5c0,29.96-12.14,57.09-31.78,76.72-19.64,19.64-46.76,31.78-76.72,31.78-26.59,0-50.94-9.56-69.81-25.44-2.39-2.01-4.7-4.13-6.91-6.34-1.4-1.4-2.77-2.85-4.09-4.33C10.47,161.69,0,136.32,0,108.5c0-29.96,12.14-57.08,31.78-76.72C51.41,12.14,78.54,0,108.5,0c59.92,0,108.5,48.58,108.5,108.5Z"/>
  <path class="cls-1" d="m182,112.91h-59.77l50.07,37.97-5.72,7.55-53.7-40.72v58.01h-9.47v-58.64c-14.72,13.38-47.91,48.67-64.72,74.48-2.39-2.01-4.7-4.13-6.91-6.34-1.4-1.4-2.77-2.85-4.09-4.33l69.49-67.98h-58.9v-9.48h57.49L31.24,45.57l6.32-7.06,65.85,59.05v-55.52h9.47v56.62c11.71-11.18,27.73-27.98,29.56-38.72l14.7,15.91c-10.5,0-27.97,16.82-38.62,27.58h63.48v9.48Z"/>
  <path class="cls-2" d="m217,108.5c0,29.96-12.14,57.09-31.78,76.72-19.64,19.64-46.76,31.78-76.72,31.78-26.59,0-50.94-9.56-69.81-25.44-2.39-2.01-4.7-4.13-6.91-6.34-1.4-1.4-2.77-2.85-4.09-4.33C10.47,161.69,0,136.32,0,108.5c0-29.96,12.14-57.08,31.78-76.72C51.41,12.14,78.54,0,108.5,0c59.92,0,108.5,48.58,108.5,108.5Z"/>
</svg>