<svg width="336" height="127" viewBox="0 0 336 127" fill="none" xmlns="http://www.w3.org/2000/svg">
<path d="M12.2147 52.5021V0.267944H54.1055V52.5021H46.2741V7.36057H20.0462V52.5021H12.2147Z" fill="#9C8CD9"/>
<path d="M64.9216 66.6874V13.5666H72.162L72.5314 19.1816C73.9106 17.1129 75.733 15.586 77.9987 14.601C80.2644 13.5666 82.6778 13.0494 85.2391 13.0494C89.0809 13.0494 92.2578 13.936 94.7698 15.7092C97.2817 17.4823 99.1534 19.8712 100.385 22.8757C101.616 25.8802 102.232 29.2787 102.232 33.0713C102.232 36.8639 101.591 40.2624 100.311 43.267C99.0795 46.2715 97.1586 48.6357 94.5481 50.3596C91.9869 52.0835 88.7115 52.9454 84.7219 52.9454C82.801 52.9454 81.0771 52.7484 79.5502 52.3544C78.0233 51.9603 76.6934 51.3939 75.5606 50.6551C74.4277 49.867 73.418 49.0297 72.5314 48.1431V66.6874H64.9216ZM83.8353 46.1483C86.495 46.1483 88.613 45.5573 90.1891 44.3752C91.7652 43.1438 92.8981 41.5431 93.5877 39.5729C94.2772 37.6027 94.622 35.4602 94.622 33.1452C94.622 30.7317 94.2526 28.5399 93.5138 26.5697C92.8242 24.5503 91.6667 22.9496 90.0413 21.7675C88.4652 20.5361 86.3473 19.9204 83.6875 19.9204C81.2741 19.9204 79.23 20.5361 77.5554 21.7675C75.8807 22.9496 74.6001 24.5503 73.7135 26.5697C72.8762 28.5892 72.4576 30.781 72.4576 33.1452C72.4576 35.5587 72.8516 37.7751 73.6397 39.7945C74.477 41.7647 75.733 43.3162 77.4076 44.4491C79.1315 45.5819 81.2741 46.1483 83.8353 46.1483Z" fill="#9C8CD9"/>
<path d="M127.161 52.9454C123.122 52.9454 119.699 52.1327 116.891 50.5073C114.084 48.8327 111.941 46.4931 110.464 43.4886C109.035 40.4841 108.321 37.0117 108.321 33.0713C108.321 29.0817 109.035 25.6093 110.464 22.654C111.941 19.6495 114.084 17.3099 116.891 15.6353C119.699 13.9114 123.147 13.0494 127.235 13.0494C131.274 13.0494 134.697 13.9114 137.504 15.6353C140.312 17.3099 142.43 19.6495 143.858 22.654C145.287 25.6585 146.001 29.1556 146.001 33.1452C146.001 37.0363 145.262 40.4841 143.784 43.4886C142.356 46.4931 140.238 48.8327 137.431 50.5073C134.672 52.1327 131.249 52.9454 127.161 52.9454ZM127.161 46.1483C129.821 46.1483 131.963 45.5573 133.589 44.3752C135.263 43.1931 136.495 41.6169 137.283 39.6468C138.071 37.6766 138.465 35.5094 138.465 33.1452C138.465 30.781 138.071 28.6138 137.283 26.6436C136.495 24.6242 135.263 23.0234 133.589 21.8413C131.963 20.61 129.821 19.9943 127.161 19.9943C124.551 19.9943 122.408 20.61 120.733 21.8413C119.059 23.0234 117.827 24.5996 117.039 26.5697C116.3 28.5399 115.931 30.7317 115.931 33.1452C115.931 35.5094 116.3 37.6766 117.039 39.6468C117.827 41.6169 119.059 43.1931 120.733 44.3752C122.408 45.5573 124.551 46.1483 127.161 46.1483Z" fill="#9C8CD9"/>
<path d="M170.729 52.9454C166.641 52.9454 163.218 52.1081 160.46 50.4335C157.751 48.7588 155.707 46.4439 154.327 43.4886C152.998 40.4841 152.333 37.0363 152.333 33.1452C152.333 29.3034 153.022 25.8802 154.401 22.8757C155.83 19.8219 157.948 17.4331 160.755 15.7092C163.612 13.936 167.134 13.0494 171.32 13.0494C174.177 13.0494 176.714 13.542 178.93 14.5271C181.146 15.4629 182.944 16.8666 184.323 18.7383C185.752 20.5607 186.688 22.851 187.131 25.6093H179.521C178.881 23.5899 177.797 22.1369 176.27 21.2503C174.793 20.3637 173.044 19.9204 171.025 19.9204C168.316 19.9204 166.148 20.5607 164.523 21.8413C162.898 23.1219 161.716 24.772 160.977 26.7914C160.287 28.8108 159.942 30.9288 159.942 33.1452C159.942 35.4602 160.312 37.6027 161.051 39.5729C161.839 41.5431 163.021 43.1438 164.597 44.3752C166.222 45.5573 168.34 46.1483 170.951 46.1483C172.921 46.1483 174.743 45.7297 176.418 44.8924C178.093 44.0058 179.176 42.5281 179.669 40.4595H187.5C187.057 43.3162 186.023 45.6804 184.397 47.5521C182.772 49.3745 180.752 50.729 178.339 51.6156C175.975 52.5021 173.438 52.9454 170.729 52.9454Z" fill="#9C8CD9"/>
<path d="M204.025 52.5021V20.3637H190.874V13.5666H224.786V20.3637H211.635V52.5021H204.025Z" fill="#9C8CD9"/>
<path d="M247.435 52.9454C243.396 52.9454 239.973 52.1327 237.165 50.5073C234.358 48.8327 232.215 46.4931 230.738 43.4886C229.309 40.4841 228.595 37.0117 228.595 33.0713C228.595 29.0817 229.309 25.6093 230.738 22.654C232.215 19.6495 234.358 17.3099 237.165 15.6353C239.973 13.9114 243.421 13.0494 247.509 13.0494C251.548 13.0494 254.971 13.9114 257.778 15.6353C260.586 17.3099 262.704 19.6495 264.132 22.654C265.56 25.6585 266.275 29.1556 266.275 33.1452C266.275 37.0363 265.536 40.4841 264.058 43.4886C262.63 46.4931 260.512 48.8327 257.704 50.5073C254.946 52.1327 251.523 52.9454 247.435 52.9454ZM247.435 46.1483C250.095 46.1483 252.237 45.5573 253.863 44.3752C255.537 43.1931 256.769 41.6169 257.557 39.6468C258.345 37.6766 258.739 35.5094 258.739 33.1452C258.739 30.781 258.345 28.6138 257.557 26.6436C256.769 24.6242 255.537 23.0234 253.863 21.8413C252.237 20.61 250.095 19.9943 247.435 19.9943C244.824 19.9943 242.682 20.61 241.007 21.8413C239.333 23.0234 238.101 24.5996 237.313 26.5697C236.574 28.5399 236.205 30.7317 236.205 33.1452C236.205 35.5094 236.574 37.6766 237.313 39.6468C238.101 41.6169 239.333 43.1931 241.007 44.3752C242.682 45.5573 244.824 46.1483 247.435 46.1483Z" fill="#9C8CD9"/>
<path d="M267.214 69.604L307.197 32.4343M307.197 32.4343H279.952M307.197 32.4343V58.7766M307.197 32.4343L278.438 6.64307M307.197 32.4343V6.64307M307.197 32.4343L321.988 18.0141M307.197 32.4343H336M307.197 32.4343L331.103 50.5621" stroke="#9C8CD9" stroke-width="4"/>
<path d="M0 60.6079C9.11012 74.2018 17.5196 87.8846 25.2281 101.656L25.5177 102.174L25.2111 102.681C20.8801 109.85 15.7654 117.856 9.86834 126.7C14.4234 126.461 18.781 126.311 22.941 126.249C34.4805 102.953 47.1747 81.0594 61.0244 60.5676C56.2259 60.8812 51.8346 61.084 47.8512 61.1755C42.0794 72.9429 36.5962 83.3028 31.4014 92.2529L30.5188 93.7735L29.638 92.2518C24.0145 82.5355 18.5154 72.1768 13.1404 61.1761C9.02369 61.0863 4.64345 60.8968 0 60.6079Z" fill="#9C8CD9"/>
<path d="M119.064 117.049C122.92 117.098 126.876 117.272 130.932 117.571C130.036 110.356 129.588 103.639 129.588 97.4188C129.588 91.199 130.036 84.6433 130.932 77.7517C126.777 78.0752 123.02 78.2493 119.661 78.2742L105.331 104.995C105.281 104.646 105.256 102.569 105.256 98.7623C105.256 92.8908 105.667 86.0739 106.488 78.3115C102.208 78.212 98.2526 78.0254 94.6202 77.7517C95.5159 84.8672 95.9637 91.5349 95.9637 97.7547C95.9637 103.95 95.5159 110.555 94.6202 117.571C98.5014 117.297 102.295 117.123 106.002 117.049C107.794 112.968 110.12 108.266 112.981 102.942C115.867 97.6178 118.28 93.2391 120.221 89.8057C120.296 90.4775 120.333 92.7788 120.333 96.7097C120.333 102.332 119.91 109.112 119.064 117.049Z" fill="#9C8CD9"/>
<path d="M146.141 97.5308C146.141 103.626 145.83 110.269 145.208 117.459H156.404C155.782 110.145 155.471 103.402 155.471 97.2322C155.471 92.0324 155.645 87.3178 155.993 83.0883C158.904 83.1132 162.947 83.2252 168.122 83.4242C168.669 82.2051 168.943 81.2597 168.943 80.588C168.943 79.9411 168.669 79.0081 168.122 77.7891C162.002 78.0627 156.23 78.1996 150.806 78.1996C145.407 78.1996 139.648 78.0627 133.527 77.7891C132.93 78.9833 132.632 79.9162 132.632 80.588C132.632 81.2846 132.93 82.23 133.527 83.4242C137.832 83.2501 141.862 83.1505 145.619 83.1257C145.967 87.4547 146.141 92.2563 146.141 97.5308Z" fill="#9C8CD9"/>
<path fill-rule="evenodd" clip-rule="evenodd" d="M171.651 97.9413C171.651 104.136 171.265 110.679 170.494 117.571C176.266 117.173 182.473 116.974 189.116 116.974C190.982 116.924 192.848 116.588 194.714 115.966C196.58 115.344 198.309 114.486 199.901 113.391C201.518 112.272 202.825 110.941 203.82 109.398C204.815 107.831 205.313 106.089 205.313 104.174C205.213 101.586 204.367 99.3469 202.775 97.4561C201.207 95.5404 199.23 94.0725 196.841 93.0525C194.453 92.0324 192.002 91.4975 189.489 91.4478L181.354 91.3358C181.528 88.1264 181.864 83.7974 182.361 78.3488C178.679 78.2244 174.723 78.0627 170.494 77.8637C171.265 85.0538 171.651 91.7463 171.651 97.9413ZM190.124 111.675C188.432 112.122 186.765 112.346 185.123 112.346C183.804 112.346 182.735 112.284 181.914 112.16C181.416 107.259 181.167 102.494 181.167 97.8666L181.205 96.2619C181.951 96.1624 183.008 96.1126 184.377 96.1126C192.089 96.1126 195.945 98.812 195.945 104.211C195.945 106.102 195.398 107.706 194.303 109.025C193.234 110.344 191.84 111.227 190.124 111.675Z" fill="#9C8CD9"/>
<path d="M77.8338 117.496V103.754C75.9622 104.05 74.3368 104.247 72.9576 104.345C71.6278 104.395 70.3964 104.419 69.2636 104.419C65.5695 104.419 62.5896 103.828 60.3239 102.646C58.1075 101.464 56.4821 99.6909 55.4477 97.3267C54.4627 94.9133 53.9701 91.9088 53.9701 88.3132V78.5608H62.9837V87.8699C62.9837 89.5938 63.1314 91.0961 63.4269 92.3767C63.7717 93.608 64.4859 94.5685 65.5695 95.258C66.6531 95.9476 68.3277 96.2924 70.5934 96.2924C71.677 96.2924 72.8591 96.2431 74.1398 96.1446C75.4204 96.0461 76.6517 95.8983 77.8338 95.7013V78.5608H86.8474V117.496H77.8338Z" fill="#9C8CD9"/>
<path d="M216.746 115.575C219.505 117.201 222.903 118.014 226.942 118.014C229.848 118.014 232.557 117.521 235.069 116.536C237.581 115.551 239.65 114.073 241.275 112.103C242.95 110.084 243.959 107.572 244.304 104.567H235.143C234.699 106.439 233.714 107.793 232.188 108.631C230.71 109.468 229.035 109.887 227.164 109.887C224.849 109.887 222.952 109.345 221.475 108.261C220.046 107.178 218.987 105.749 218.298 103.976C217.608 102.154 217.263 100.208 217.263 98.1394C217.263 96.1692 217.584 94.273 218.224 92.4505C218.864 90.6281 219.899 89.1259 221.327 87.9438C222.805 86.7124 224.775 86.0967 227.237 86.0967C229.158 86.0967 230.784 86.54 232.114 87.4266C233.493 88.2639 234.478 89.6184 235.069 91.4901H243.935C243.541 88.5348 242.605 86.0721 241.127 84.1019C239.699 82.0825 237.803 80.5556 235.438 79.5213C233.123 78.4869 230.464 77.9698 227.459 77.9698C223.371 77.9698 219.899 78.8317 217.042 80.5556C214.185 82.2795 212.018 84.6684 210.54 87.7221C209.063 90.7266 208.324 94.1991 208.324 98.1394C208.324 102.08 209.038 105.552 210.466 108.557C211.895 111.561 213.988 113.901 216.746 115.575Z" fill="#9C8CD9"/>
<path fill-rule="evenodd" clip-rule="evenodd" d="M259.05 102.646L248.633 117.496H259.198L267.842 104.345H274.639V117.496H283.653V78.5608H266.217C263.951 78.5608 261.858 78.7825 259.937 79.2258C258.016 79.6198 256.341 80.3094 254.913 81.2944C253.485 82.2303 252.376 83.5355 251.588 85.2102C250.8 86.8356 250.406 88.9042 250.406 91.4162C250.406 94.3222 251.194 96.7357 252.77 98.6566C254.347 100.578 256.44 101.907 259.05 102.646ZM274.639 96.8096H269.394C268.261 96.8096 267.103 96.7603 265.921 96.6618C264.739 96.5633 263.656 96.3416 262.671 95.9969C261.685 95.6028 260.897 95.061 260.306 94.3715C259.715 93.6326 259.42 92.6722 259.42 91.4901C259.42 90.4065 259.592 89.5445 259.937 88.9042C260.282 88.2639 260.774 87.7468 261.415 87.3527C262.055 86.9587 262.843 86.6878 263.779 86.54C264.715 86.3923 265.749 86.3184 266.882 86.3184H274.639V96.8096Z" fill="#9C8CD9"/>
</svg>
